<svg width="76" height="68" fill="none" xmlns="http://www.w3.org/2000/svg">
  <path
    d="M72 45H4c-2 0-4 2-4 5v3c0 2 2 4 4 4h1v1c0 6 5 10 10 10h46c5 0 10-5 10-10v-1h1c2 0 4-2 4-4v-4c0-2-2-4-4-4Zm-4 13c0 4-3 7-7 7H15c-4 0-7-3-7-7v-1h60v1Zm5-5-1 1H4l-1-1v-4l1-1h68l1 2v3ZM16 37l6 4 5-4 6 4 5-4 5 4 6-4 5 4 6-4 5 4 7-4-2-3-5 4-5-4-6 4-5-4-6 4-5-4-5 4-6-4-5 4-6-4-5 4-5-4-2 3 7 4 5-4ZM71 31v-3C70 12 56 0 38 0S6 12 5 28v3h66ZM38 3c16 0 29 11 30 25H8C9 14 22 3 38 3Z"
    fill="#81B3D2" />
  <path d="m38 17 2-2-2-2-2 2 2 2ZM30 12l2-2-2-2-2 2 2 2ZM46 12l2-2-2-2-2 2 2 2Z" fill="#81B3D2" />
</svg>
