<svg width="64" height="75" fill="none" xmlns="http://www.w3.org/2000/svg">
  <path
    d="M61.2 22.1H36.4c13.8-6.8 14.9-11 14.4-13.5-1.1-3.9-5.7-6.9-10-5.3-5.5 2.1-7 10.3-8.6 16.2-2-6-3.8-13.6-8.1-17.5a7.5 7.5 0 0 0-5.8-2c-4 .4-9.9 5.3-7.4 10.8 2.2 5.3 9.6 8.7 14.6 11.4H2.8A2.8 2.8 0 0 0 0 25v11.2C0 37.8 1.3 39 2.8 39h.3v36h58V39c1.7 0 2.9-1.3 2.9-2.8V25c0-1.6-1.3-2.9-2.8-2.9ZM42.5 5.8c2.1-.3 5 1.3 5.2 3.2.5 2.7-3.3 5.2-5 6.3-2.6 1.7-5 2.6-7.3 4 .8-3.7 2.5-12.9 7-13.5Zm-23 9.8c-2.2-1.5-6.5-4.4-6.4-7.7.1-3.6 5.8-6.5 8.8-3.8 3.9 3.3 5.7 11 7.2 16.4-3.3-1.6-6.3-2.8-9.6-4.9Zm6 56.4H6.1V39h19.4v33Zm0-36H3V25.1h22.5v11Zm10.2 36h-7.3V25.1h7.3V72ZM58 72H38.7V39h19.4v33Zm3-36H38.7V25.1H61v11Z"
    fill="#81B3D2" />
</svg>
